<?xml version="1.0" encoding="UTF-8" standalone="no"?>
<!-- Created with Inkscape (http://www.inkscape.org/) -->
<svg
   xmlns:dc="http://purl.org/dc/elements/1.1/"
   xmlns:cc="http://creativecommons.org/ns#"
   xmlns:rdf="http://www.w3.org/1999/02/22-rdf-syntax-ns#"
   xmlns:svg="http://www.w3.org/2000/svg"
   xmlns="http://www.w3.org/2000/svg"
   xmlns:sodipodi="http://sodipodi.sourceforge.net/DTD/sodipodi-0.dtd"
   xmlns:inkscape="http://www.inkscape.org/namespaces/inkscape"
   width="100"
   height="100"
   id="svg2"
   sodipodi:version="0.32"
   inkscape:version="0.46"
   version="1.0"
   sodipodi:docname="cameraoff.svg"
   inkscape:output_extension="org.inkscape.output.svg.inkscape">
  <defs
     id="defs4">
    <inkscape:perspective
       sodipodi:type="inkscape:persp3d"
       inkscape:vp_x="0 : 526.18109 : 1"
       inkscape:vp_y="0 : 1000 : 0"
       inkscape:vp_z="744.09448 : 526.18109 : 1"
       inkscape:persp3d-origin="372.04724 : 350.78739 : 1"
       id="perspective10" />
  </defs>
  <sodipodi:namedview
     id="base"
     pagecolor="#ffffff"
     bordercolor="#666666"
     borderopacity="1.0"
     gridtolerance="10000"
     guidetolerance="10"
     objecttolerance="10"
     inkscape:pageopacity="0.0"
     inkscape:pageshadow="2"
     inkscape:zoom="4.3718493"
     inkscape:cx="15.515811"
     inkscape:cy="48.053342"
     inkscape:document-units="px"
     inkscape:current-layer="layer1"
     showgrid="true"
     inkscape:window-width="1592"
     inkscape:window-height="1169"
     inkscape:window-x="0"
     inkscape:window-y="0">
    <inkscape:grid
       type="xygrid"
       id="grid2383"
       visible="true"
       enabled="true" />
  </sodipodi:namedview>
  <metadata
     id="metadata7">
    <rdf:RDF>
      <cc:Work
         rdf:about="">
        <dc:format>image/svg+xml</dc:format>
        <dc:type
           rdf:resource="http://purl.org/dc/dcmitype/StillImage" />
      </cc:Work>
    </rdf:RDF>
  </metadata>
  <g
     inkscape:label="Layer 1"
     inkscape:groupmode="layer"
     id="layer1">
    <path
       style="fill:#cccccc;fill-opacity:0.75000000000000000;fill-rule:evenodd;stroke:#000000;stroke-width:1px;stroke-linecap:butt;stroke-linejoin:miter;stroke-opacity:1"
       d="M 0,50 C 25,25 75,25 100,50 C 75,75 25,75 0,50"
       id="path2397" />
    <path
       sodipodi:type="arc"
       style="fill:#636363;fill-opacity:1;stroke:#000000;stroke-width:1;stroke-linecap:butt;stroke-linejoin:miter;stroke-miterlimit:4;stroke-dasharray:none;stroke-dashoffset:0;stroke-opacity:1"
       id="path2399"
       sodipodi:cx="50"
       sodipodi:cy="50"
       sodipodi:rx="15"
       sodipodi:ry="15"
       d="M 65,50 A 15,15 0 1 1 35,50 A 15,15 0 1 1 65,50 z" />
    <path
       sodipodi:type="arc"
       style="fill:#000000;fill-opacity:1;stroke:#000000;stroke-width:1;stroke-linecap:butt;stroke-linejoin:miter;stroke-miterlimit:4;stroke-dasharray:none;stroke-dashoffset:0;stroke-opacity:1"
       id="path3171"
       sodipodi:cx="50"
       sodipodi:cy="50"
       sodipodi:rx="5"
       sodipodi:ry="5"
       d="M 55,50 A 5,5 0 1 1 45,50 A 5,5 0 1 1 55,50 z" />
    <path
       style="fill:#ff0000;fill-opacity:0.86274511;stroke:none;stroke-width:1;stroke-linecap:butt;stroke-linejoin:miter;stroke-miterlimit:4;stroke-dasharray:none;stroke-dashoffset:0;stroke-opacity:1"
       d="M 50 0 C 22.4 0 0 22.4 0 50 C 0 77.6 22.4 100 50 100 C 77.6 100 100 77.6 100 50 C 100 22.4 77.6 -2.3684758e-14 50 0 z M 50 10 C 59.242834 10 67.75568 13.135292 74.53125 18.40625 L 18.40625 74.53125 C 13.135292 67.75568 10 59.242834 10 50 C 10 27.92 27.92 10 50 10 z M 81.59375 25.46875 C 86.864708 32.24432 90 40.757166 90 50 C 90 72.08 72.08 90 50 90 C 40.757166 90 32.24432 86.864708 25.46875 81.59375 L 81.59375 25.46875 z "
       id="path3193" />
  </g>
</svg>
